<?xml version="1.0" standalone="no"?><!DOCTYPE svg PUBLIC "-//W3C//DTD SVG 1.1//EN" "http://www.w3.org/Graphics/SVG/1.1/DTD/svg11.dtd"><svg t="1638244197554" class="icon" viewBox="0 0 1024 1024" version="1.1" xmlns="http://www.w3.org/2000/svg" p-id="1356" width="32" height="32" xmlns:xlink="http://www.w3.org/1999/xlink"><defs><style type="text/css"></style></defs><path d="M414.14 666.86a20 20 0 0 1-10-2.68A215.89 215.89 0 0 1 296 477a216 216 0 1 1 403.18 107.87 217.32 217.32 0 0 1-75.83 77.24 20 20 0 0 1-26.25-5l-84.72-111.56-82 113.06a20 20 0 0 1-16.24 8.25zM512 301c-97 0-176 79-176 176a176.66 176.66 0 0 0 73.09 142.78L469 537.27a74 74 0 1 1 86.89-0.62l61.71 81.23A174.58 174.58 0 0 0 688 477c0-97-78.95-176-176-176z m0 142a34 34 0 0 0-8 67.06 20 20 0 0 1 8.19 4.13 20 20 0 0 1 8.15-4.22A34 34 0 0 0 512 443z" p-id="1357" fill="#ffffff"></path><path d="M675.35 747H356a20 20 0 0 1-16.19-31.75l143.31-197.5a20 20 0 0 1 20.88-7.69 34.54 34.54 0 0 0 16.3-0.08 20 20 0 0 1 20.84 7.29L691.27 714.9a20 20 0 0 1-15.92 32.1z m-280.13-40H635L516.42 550.87a77.89 77.89 0 0 1-7.94 0z" p-id="1358" fill="#ffffff"></path><path d="M834.76 800a19.9 19.9 0 0 1-13.34-5.11L201.65 239.38a20 20 0 0 1 26.7-29.78l619.77 555.51A20 20 0 0 1 834.76 800z" p-id="1359" fill="#ffffff"></path><path d="M512 968.25A456.37 456.37 0 0 1 334.4 91.61a456.37 456.37 0 0 1 355.2 840.78A453.54 453.54 0 0 1 512 968.25z m0-872.5C282.48 95.75 95.75 282.48 95.75 512S282.48 928.25 512 928.25 928.25 741.52 928.25 512 741.52 95.75 512 95.75z" p-id="1360" fill="#ffffff"></path></svg>