<?xml version="1.0" encoding="UTF-8"?>
<svg width="41px" height="48px" viewBox="0 0 41 48" version="1.1" xmlns="http://www.w3.org/2000/svg" xmlns:xlink="http://www.w3.org/1999/xlink">
    <!-- Generator: Sketch 64 (93537) - https://sketch.com -->
    <title>xmzl_qst</title>
    <desc>Created with Sketch.</desc>
    <g id="web项目" stroke="none" stroke-width="1" fill="none" fill-rule="evenodd" fill-opacity="0.30174074">
        <g id="项目列表-大屏备份-7" transform="translate(-821.000000, -1206.000000)" fill="#FFFFFF" fill-rule="nonzero">
            <g id="宇航员飞翔" transform="translate(821.000000, 1206.000000)">
                <path d="M31.357098,1.06583347 C36.5887799,3.23258445 40,8.33758096 40,14.0002043 C39.9925986,20.7034764 35.2798573,26.3044502 28.9865755,27.6777508 C29.0202741,28.7621798 28.9990235,30.1293525 28.8209318,31.5825605 L28.785,31.86 L28.8213011,31.6770573 C28.9621704,30.941037 29.0758063,30.3522208 29.1146507,30.1639426 C29.2457861,29.5283324 31.802926,28.9505049 31.9340615,28.7771566 C32.0651969,28.6038084 37.1139092,25.8880193 38.8186691,26.0035848 C40.5234291,26.1191502 41.1135384,27.6215017 40.982403,30.1061598 C40.8512676,32.5908179 37.1794768,31.8396422 37.1794768,31.8396422 C36.281928,33.6476002 29.6172716,35.7870171 29.3215079,35.8812095 L29.3113538,35.8844345 L28,36 C28,36 28.1786768,35.0552265 28.3938701,33.9218424 C28.2582638,34.4663014 28.0941122,35.0090585 27.8967709,35.5399352 C27.8128352,35.7624341 27.7313681,35.984933 27.649901,36.2024318 C26.1341194,40.3024107 24.8108964,43.8473923 15.4298378,44.7623876 C15.2941027,45.0163049 15.1721327,45.2775241 15.0644703,45.5448836 C14.6332741,46.6339336 13.770911,47.4899959 12.6871125,47.9048714 C12.4675286,47.9702896 12.2395651,48.0023057 12.0106888,48 C11.8084546,47.9996987 11.6069982,47.9745124 11.4107948,47.9248713 C10.7960886,47.7748721 9.9641368,47.2998745 9.50248997,45.9248816 C8.92975166,44.1923906 8.581665,40.5474094 9.42349157,38.6174194 C7.86327338,38.094922 6.71779677,37.3524259 6.26355603,36.8974282 C6.12768717,36.7232118 5.90302162,36.6467204 5.69081773,36.7024292 C5.56232485,36.7444402 5.45400584,36.8336205 5.38716769,36.952428 C4.69346306,38.0574223 3.65907792,38.48992 2.42472812,38.1674217 C1.27040959,37.8565879 0.382051855,36.9222967 0.118962711,35.7424342 C-0.216780466,34.2824417 0.163399272,32.5774505 1.19284702,30.937459 C2.98018554,28.0699738 4.42437479,27.3949773 6.43636502,27.1574785 C7.07164897,27.0532835 7.7206989,27.2278298 8.22123484,27.637476 C8.65885478,28.0441713 8.9490227,28.5853408 9.04913263,29.1744431 L9.07540497,29.3724671 L9.19883993,29.6774655 C9.68023635,29.9424642 11.5218862,30.1924629 12.0526567,30.0499636 L12.1294445,30.0268673 L12.2007787,29.9899639 L12.2007787,29.964964 C12.2571125,29.745738 12.3223528,29.5290347 12.3963156,29.3154031 C11.71451,29.6983428 11.160477,30 11.160477,30 C11.160477,30 6.56985002,25.6145755 6.18729784,23.4218633 C6.18729784,23.4218633 1.76499387,22.562836 3.33855875,19.5962253 C4.91212363,16.6296146 7.24824273,17.0165639 7.24824273,17.0165638 C7.24824273,17.0165637 9.00798304,17.6098859 9.16100397,19.2840863 C9.22001423,19.8024806 9.56980814,20.2397228 10.0587265,20.406239 L11.6271907,20.9711849 L14.6034472,24.4975821 C14.6034472,24.4975821 14.6443046,24.6876864 14.6997902,24.9772135 C15.0936606,24.3454568 15.4436556,23.8127584 15.6803225,23.4593533 C14.5950973,22.2776401 13.7040286,20.8972366 13.0668209,19.3594826 C10.8991052,14.1282004 12.0962311,8.10621568 16.0999415,4.10176717 C20.1036519,0.0973186653 26.1254161,-1.1009175 31.357098,1.06583347 Z M26.0027855,2.06527556 C21.1753227,2.06423187 16.8226225,4.97142183 14.974509,9.43111619 C13.1263955,13.8908105 14.1468602,19.0246593 17.5600228,22.4385601 C17.9448401,22.8234607 18.3515271,23.1779513 18.7766528,23.5013493 L28.8027837,25.3099881 C28.8067925,25.3363757 28.8204995,25.4328901 28.8389545,25.5900281 C29.4225493,25.4499991 30.0001661,25.2616032 30.5669077,25.0268871 C35.0270018,23.1797383 37.9351334,18.8276671 37.9351334,14.0002043 C37.9280235,7.41268007 32.5903084,2.07381055 26.0027855,2.06527556 Z M25.5,4 C30.7467051,4 35,8.25329488 35,13.5 C35,18.7467051 30.7467051,23 25.5,23 C20.2532949,23 16,18.7467051 16,13.5 C16,8.25329488 20.2532949,4 25.5,4 Z M25.7952381,6 L25.7952381,6.42857143 C28.131746,13.5494505 26.3666667,17.2527473 20.5,17.5384615 L26.6333333,21 C29.9857143,19.5714286 31.9412698,17.1428571 32.5,13.7142857 C32.2206349,9.42857143 29.9857143,6.85714286 25.7952381,6 Z" id="xmzl_qst"></path>
            </g>
        </g>
    </g>
</svg>